<svg data-v-fde0c5aa="" xmlns="http://www.w3.org/2000/svg" viewBox="0 0 300 300" class="font"><!----><defs data-v-fde0c5aa=""><!----></defs><rect data-v-fde0c5aa="" fill="#020C38" x="0" y="0" width="300px" height="300px" class="logo-background-square"></rect><defs data-v-fde0c5aa=""><!----></defs><g data-v-fde0c5aa="" id="db1b5596-f5c8-46f2-b440-9336e550593e" fill="#FFFFFF" transform="matrix(4.539826746932223,0,0,4.539826746932223,35.369376804719444,112.2513403394876)"><path d="M4.79 6.85L4.79 6.85Q5.57 6.85 6.24 7.18L6.24 7.18L6.24 7.18Q6.90 7.52 7.31 8.24L7.31 8.24L7.31 8.24Q7.71 8.96 7.71 10.05L7.71 10.05L7.71 14L5.21 14L5.21 9.87L5.21 9.87Q5.21 9.34 5.05 9.07L5.05 9.07L5.05 9.07Q4.90 8.81 4.51 8.81L4.51 8.81L4.51 8.81Q3.86 8.81 3.53 9.34L3.53 9.34L3.53 14L1.02 14L1.02 9.17L1.02 7L2.65 7L3.02 7.59L3.02 7.59Q3.70 6.85 4.79 6.85L4.79 6.85ZM15.75 14L13.99 14L13.72 13.51L13.72 13.51Q13.09 14.14 11.98 14.14L11.98 14.14L11.98 14.14Q10.58 14.14 9.86 13.37L9.86 13.37L9.86 13.37Q9.14 12.60 9.14 10.93L9.14 10.93L9.14 6.99L11.63 6.99L11.63 10.51L11.63 10.51Q11.63 11.30 11.87 11.74L11.87 11.74L11.87 11.74Q12.10 12.18 12.46 12.18L12.46 12.18L12.46 12.18Q12.91 12.18 13.24 12.01L13.24 12.01L13.24 6.99L15.74 6.99L15.74 12.59L15.75 14ZM22.53 14L20.27 11.35L19.87 11.35L19.87 14L17.37 14L17.37 2.80L19.87 2.80L19.87 9.39L20.19 9.39L22.29 7L25.23 7L22.11 10.33L25.47 14L22.53 14ZM32.55 14L30.79 14L30.52 13.51L30.52 13.51Q29.89 14.14 28.78 14.14L28.78 14.14L28.78 14.14Q27.38 14.14 26.66 13.37L26.66 13.37L26.66 13.37Q25.94 12.60 25.94 10.93L25.94 10.93L25.94 6.99L28.43 6.99L28.43 10.51L28.43 10.51Q28.43 11.30 28.67 11.74L28.67 11.74L28.67 11.74Q28.90 12.18 29.26 12.18L29.26 12.18L29.26 12.18Q29.71 12.18 30.04 12.01L30.04 12.01L30.04 6.99L32.54 6.99L32.54 12.59L32.55 14ZM38.43 2.80L40.92 2.80L40.92 14L39.24 14L38.81 13.47L38.81 13.47Q38.16 14.15 37.34 14.15L37.34 14.15L37.34 14.15Q35.81 14.15 34.94 13.25L34.94 13.25L34.94 13.25Q34.08 12.35 34.08 10.49L34.08 10.49L34.08 10.49Q34.08 6.85 37.20 6.85L37.20 6.85L37.20 6.85Q37.87 6.85 38.43 7.24L38.43 7.24L38.43 2.80ZM37.80 12.19L37.80 12.19Q38.21 12.19 38.43 11.94L38.43 11.94L38.43 9.20L38.43 9.20Q38.15 8.81 37.66 8.81L37.66 8.81L37.66 8.81Q37.04 8.81 36.81 9.23L36.81 9.23L36.81 9.23Q36.57 9.66 36.57 10.49L36.57 10.49L36.57 10.49Q36.57 11.28 36.87 11.74L36.87 11.74L36.87 11.74Q37.17 12.19 37.80 12.19L37.80 12.19ZM46.48 5.98L46.48 5.98Q45.75 5.98 45.24 5.47L45.24 5.47L45.24 5.47Q44.73 4.96 44.73 4.23L44.73 4.23L44.73 4.23Q44.73 3.49 45.24 2.98L45.24 2.98L45.24 2.98Q45.75 2.48 46.48 2.48L46.48 2.48L46.48 2.48Q47.22 2.48 47.73 2.98L47.73 2.98L47.73 2.98Q48.23 3.49 48.23 4.23L48.23 4.23L48.23 4.23Q48.23 4.96 47.73 5.47L47.73 5.47L47.73 5.47Q47.22 5.98 46.48 5.98L46.48 5.98ZM47.73 12.05L49.48 12.05L49.48 14L45.22 14L45.22 8.95L42.98 8.95L42.98 7L47.73 7L47.73 12.05Z"></path></g><!----><!----></svg>